<svg width="20" height="21" viewBox="0 0 20 21" fill="none" xmlns="http://www.w3.org/2000/svg">
<path fill-rule="evenodd" clip-rule="evenodd" d="M13.0559 2.86371H14.0108C15.1696 2.86371 16.1115 3.80558 16.1115 4.9644V7.44703C16.1115 7.8687 15.77 8.21092 15.3476 8.21092C14.9251 8.21092 14.5837 7.8687 14.5837 7.44703H2.36129V13.5581C2.36129 13.979 2.70352 14.322 3.12519 14.322H6.94469C7.36713 14.322 7.70859 14.6642 7.70859 15.0859C7.70859 15.5076 7.36713 15.8498 6.94469 15.8498H3.12519C1.8617 15.8498 0.833496 14.8216 0.833496 13.5581V4.9644C0.833496 3.80558 1.77538 2.86371 2.93422 2.86371H3.88909V2.09982C3.88909 1.67816 4.23056 1.33594 4.65299 1.33594C5.07543 1.33594 5.41689 1.67816 5.41689 2.09982V2.86371H11.5281V2.09982C11.5281 1.67816 11.8695 1.33594 12.292 1.33594C12.7144 1.33594 13.0559 1.67816 13.0559 2.09982V2.86371ZM9.23613 14.704C9.23613 11.9662 11.4637 9.73874 14.2015 9.73874C16.9393 9.73874 19.1668 11.9662 19.1668 14.704C19.1668 17.4418 16.9393 19.6693 14.2015 19.6693C11.4637 19.6693 9.23613 17.4418 9.23613 14.704ZM14.0151 16.7321L16.4977 13.8676C16.7735 13.549 16.7391 13.0662 16.4206 12.7905C16.102 12.5155 15.6193 12.5483 15.3427 12.8676L13.3978 15.1119L12.6408 14.3549C12.3421 14.0562 11.8594 14.0562 11.5607 14.3549C11.262 14.6536 11.262 15.1364 11.5607 15.435L12.8975 16.7718C13.0411 16.9155 13.2351 16.9957 13.4376 16.9957H13.4651C13.6767 16.9873 13.876 16.8925 14.0151 16.7321Z" fill="white"/>
</svg>
