<svg width="24" height="24" viewBox="0 0 24 24" fill="none" xmlns="http://www.w3.org/2000/svg">
<path d="M15.4415 11.1448L6.34912 9.54297V21.3789C6.34934 21.6386 6.45271 21.8876 6.63649 22.071C6.82026 22.2545 7.0694 22.3574 7.32908 22.3572H23.0183C23.2783 22.3579 23.5279 22.2551 23.712 22.0716C23.8961 21.8881 23.9997 21.6389 23.9999 21.3789V17.018L15.4415 11.1448Z" fill="#185C37"/>
<path d="M15.4415 1H7.32908C7.0694 0.999782 6.82026 1.10273 6.63649 1.2862C6.45271 1.46967 6.34934 1.71864 6.34912 1.97832V6.33928L15.4415 11.6786L20.2559 13.2803L23.9999 11.6786V6.33928L15.4415 1Z" fill="#21A366"/>
<path d="M6.34912 6.33984H15.4415V11.6791H6.34912V6.33984Z" fill="#107C41"/>
<path opacity="0.1" d="M12.8565 5.26953H6.34912V18.6177H12.8565C13.3961 18.615 13.8332 18.179 13.8372 17.6394V6.24785C13.8332 5.70826 13.3961 5.27221 12.8565 5.26953Z" fill="black"/>
<path opacity="0.2" d="M12.3217 5.80469H6.34912V19.1529H12.3217C12.8613 19.1502 13.2985 18.7141 13.3025 18.1746V6.78301C13.2985 6.24342 12.8613 5.80737 12.3217 5.80469V5.80469Z" fill="black"/>
<path opacity="0.2" d="M12.3217 5.80469H6.34912V18.085H12.3217C12.8613 18.0823 13.2985 17.6463 13.3025 17.1067V6.78301C13.2985 6.24342 12.8613 5.80737 12.3217 5.80469V5.80469Z" fill="black"/>
<path opacity="0.2" d="M11.787 5.80469H6.34912V18.085H11.787C12.3266 18.0823 12.7637 17.6463 12.7678 17.1067V6.78301C12.7637 6.24342 12.3266 5.80737 11.787 5.80469V5.80469Z" fill="black"/>
<path d="M1.98078 5.80469H11.787C12.3279 5.80423 12.7669 6.24211 12.7678 6.78301V16.5728C12.7669 17.1137 12.3279 17.5515 11.787 17.5511H1.98078C1.72096 17.5515 1.47161 17.4487 1.28765 17.2652C1.1037 17.0817 1.00022 16.8326 1 16.5728V6.78301C1.00022 6.52318 1.1037 6.2741 1.28765 6.0906C1.47161 5.90711 1.72096 5.80425 1.98078 5.80469Z" fill="url(#paint0_linear_11128_68561)"/>
<path d="M4.03955 14.8589L6.10215 11.6684L4.21287 8.49609H5.73005L6.76094 10.5275C6.85622 10.7197 6.92522 10.8626 6.95644 10.9579H6.9704C7.03776 10.8035 7.10922 10.6548 7.18397 10.5094L8.28633 8.49938H9.68275L7.74501 11.6537L9.73204 14.8613H8.24608L7.05501 12.6344C6.99971 12.5387 6.95271 12.4384 6.91455 12.3346H6.89483C6.8601 12.4357 6.81379 12.5325 6.75683 12.6229L5.53044 14.8589H4.03955Z" fill="white"/>
<path d="M23.0191 1H15.4414V6.33928H23.9999V1.97832C23.9996 1.71849 23.8962 1.46941 23.7122 1.28591C23.5282 1.10242 23.2789 0.999565 23.0191 1Z" fill="#33C481"/>
<path d="M15.4414 11.6797H23.9999V17.019H15.4414V11.6797Z" fill="#107C41"/>
<defs>
<linearGradient id="paint0_linear_11128_68561" x1="-3.60549" y1="8.86412" x2="4.04409" y2="22.1603" gradientUnits="userSpaceOnUse">
<stop stop-color="#18884F"/>
<stop offset="0.5" stop-color="#117E43"/>
<stop offset="1" stop-color="#0B6631"/>
</linearGradient>
</defs>
</svg>
